<svg width="134" height="134" viewBox="0 0 134 134" fill="none" xmlns="http://www.w3.org/2000/svg">
<path d="M66.6666 21.9174C41.9946 21.9174 21.9172 41.9907 21.9172 66.6667C21.9172 91.3387 41.9959 111.416 66.6666 111.416C91.3372 111.416 111.416 91.3427 111.416 66.6667C111.416 41.9907 91.3372 21.9174 66.6666 21.9174ZM66.6666 107.251C44.2919 107.251 26.0826 89.048 26.0826 66.6667C26.0826 44.292 44.2852 26.0827 66.6666 26.0827C89.0412 26.0827 107.251 44.2907 107.251 66.6667C107.251 89.0427 89.0426 107.251 66.6666 107.251Z" fill="#242424"/>
<path d="M59.0731 61.8067C59.4794 62.213 60.0106 62.4161 60.5471 62.4161C61.0784 62.4161 61.6148 62.213 62.0211 61.8067C62.8336 60.9942 62.8336 59.6765 62.0211 58.8589L50.8129 47.6453C50.0004 46.8328 48.6826 46.8328 47.865 47.6453C47.0525 48.4578 47.0525 49.7755 47.865 50.5931L59.0731 61.8067Z" fill="#242424"/>
<path d="M74.5306 71.3746C73.7181 70.5621 72.4004 70.5621 71.5828 71.3746C70.7703 72.1871 70.7703 73.5049 71.5828 74.3225L82.791 85.5361C83.1973 85.9424 83.7285 86.1455 84.265 86.1455C84.7963 86.1455 85.3327 85.9424 85.739 85.5361C86.5515 84.7236 86.5515 83.4058 85.739 82.5882L74.5306 71.3746Z" fill="#242424"/>
<path d="M59.2453 71.0574L47.2661 83.0366C46.4536 83.8491 46.4536 85.1668 47.2661 85.9844C47.6724 86.3907 48.2036 86.5938 48.7401 86.5938C49.2714 86.5938 49.8078 86.3907 50.2141 85.9844L62.1933 74.0052C63.0058 73.1927 63.0058 71.875 62.1933 71.0574C61.3756 70.2449 60.0579 70.2449 59.2455 71.0574H59.2453Z" fill="#242424"/>
<path d="M83.2452 47.0574L71.1619 59.1407C70.3494 59.9532 70.3494 61.271 71.1619 62.0886C71.5681 62.4948 72.0994 62.698 72.6359 62.698C73.1671 62.698 73.7036 62.4948 74.1099 62.0886L86.1932 50.0052C87.0057 49.1927 87.0057 47.875 86.1932 47.0574C85.3755 46.2449 84.0577 46.2449 83.2453 47.0574H83.2452Z" fill="#242424"/>
</svg>
